<svg width="14" height="14" viewBox="0 0 14 14" fill="none" xmlns="http://www.w3.org/2000/svg">
<path d="M7 10.577L3.462 7.038L4.169 6.319L6.5 8.65V0H7.5V8.65L9.83 6.32L10.538 7.038L7 10.577ZM1.615 14C1.155 14 0.771 13.846 0.463 13.538C0.154333 13.2293 0 12.845 0 12.385V9.962H1V12.385C1 12.5383 1.064 12.6793 1.192 12.808C1.32067 12.936 1.46167 13 1.615 13H12.385C12.5383 13 12.6793 12.936 12.808 12.808C12.936 12.6793 13 12.5383 13 12.385V9.962H14V12.385C14 12.845 13.846 13.229 13.538 13.537C13.2293 13.8457 12.845 14 12.385 14H1.615Z" fill="#1C1C1C"/>
</svg>
