<svg width="24" height="24" viewBox="0 0 24 24" fill="none" xmlns="http://www.w3.org/2000/svg">
<path fill-rule="evenodd" clip-rule="evenodd" d="M12.707 2.29303C12.5195 2.10556 12.2652 2.00024 12 2.00024C11.7349 2.00024 11.4805 2.10556 11.293 2.29303L4.29302 9.29303L2.29302 11.293C2.19751 11.3853 2.12133 11.4956 2.06892 11.6176C2.01651 11.7396 1.98892 11.8709 1.98777 12.0036C1.98662 12.1364 2.01192 12.2681 2.0622 12.391C2.11248 12.5139 2.18673 12.6255 2.28063 12.7194C2.37452 12.8133 2.48617 12.8876 2.60907 12.9379C2.73196 12.9881 2.86364 13.0134 2.99642 13.0123C3.1292 13.0111 3.26042 12.9835 3.38242 12.9311C3.50443 12.8787 3.61477 12.8025 3.70702 12.707L4.00002 12.414V19C4.00002 19.7957 4.31609 20.5587 4.8787 21.1214C5.44131 21.684 6.20437 22 7.00002 22H17C17.7957 22 18.5587 21.684 19.1213 21.1214C19.684 20.5587 20 19.7957 20 19V12.414L20.293 12.707C20.4816 12.8892 20.7342 12.99 20.9964 12.9877C21.2586 12.9854 21.5094 12.8803 21.6948 12.6948C21.8802 12.5094 21.9854 12.2586 21.9877 11.9964C21.99 11.7342 21.8892 11.4816 21.707 11.293L12.707 2.29303Z" fill="#ED4D86"/>
</svg>
