<svg width="19" height="21" viewBox="0 0 19 21" fill="none" xmlns="http://www.w3.org/2000/svg">
<path d="M13.5 0C13.7652 0 14.0196 0.105357 14.2071 0.292893C14.3946 0.48043 14.5 0.734784 14.5 1V2H16.5C17.0304 2 17.5391 2.21071 17.9142 2.58579C18.2893 2.96086 18.5 3.46957 18.5 4V16C18.5 16.5304 18.2893 17.0391 17.9142 17.4142C17.5391 17.7893 17.0304 18 16.5 18H2.5C1.96957 18 1.46086 17.7893 1.08579 17.4142C0.710714 17.0391 0.5 16.5304 0.5 16V4C0.5 3.46957 0.710714 2.96086 1.08579 2.58579C1.46086 2.21071 1.96957 2 2.5 2H4.5V1C4.5 0.734784 4.60536 0.48043 4.79289 0.292893C4.98043 0.105357 5.23478 0 5.5 0C5.76522 0 6.01957 0.105357 6.20711 0.292893C6.39464 0.48043 6.5 0.734784 6.5 1V2H12.5V1C12.5 0.734784 12.6054 0.48043 12.7929 0.292893C12.9804 0.105357 13.2348 0 13.5 0ZM16.5 4H2.5V16H16.5V4ZM12.324 6.379C12.5126 6.19684 12.7652 6.09605 13.0274 6.09833C13.2896 6.1006 13.5404 6.20577 13.7258 6.39118C13.9112 6.57659 14.0164 6.8274 14.0187 7.0896C14.021 7.3518 13.9202 7.6044 13.738 7.793L8.796 12.736C8.7022 12.8299 8.59082 12.9044 8.46822 12.9552C8.34562 13.006 8.21421 13.0321 8.0815 13.0321C7.94879 13.0321 7.81738 13.006 7.69478 12.9552C7.57218 12.9044 7.4608 12.8299 7.367 12.736L5.253 10.62C5.07084 10.4314 4.97005 10.1788 4.97233 9.9166C4.9746 9.6544 5.07977 9.40359 5.26518 9.21818C5.45059 9.03277 5.7014 8.9276 5.9636 8.92533C6.2258 8.92305 6.4784 9.02384 6.667 9.206L8.082 10.62L12.324 6.379Z" fill="#4E4E4E"/>
</svg>
