<svg width="335" height="247" viewBox="0 0 335 247" fill="none" xmlns="http://www.w3.org/2000/svg">
<g clip-path="url(#clip0_24_358)">
<path d="M62.5514 245.056C97.0976 245.056 125.103 240.757 125.103 235.454C125.103 230.151 97.0976 225.852 62.5514 225.852C28.0052 225.852 0 230.151 0 235.454C0 240.757 28.0052 245.056 62.5514 245.056Z" fill="#DFDFEB"/>
<path d="M164.705 247C227.07 247 277.627 242.701 277.627 237.398C277.627 232.095 227.07 227.796 164.705 227.796C102.34 227.796 51.7829 232.095 51.7829 237.398C51.7829 242.701 102.34 247 164.705 247Z" fill="#DFDFEB"/>
<path d="M133.988 -0.000111246C122.337 0.294427 112.687 9.66075 111.981 21.3245C111.569 28.1578 114.217 34.402 118.689 38.8201C119.336 39.4681 119.63 40.4106 119.513 41.2942L117.865 51.2496L128.163 45.241C128.751 44.8876 129.457 44.7697 130.105 44.8876C132.635 45.4177 135.283 45.4766 138.048 45.0643C148.229 43.5327 156.173 35.05 157.114 24.8C158.409 11.1334 147.522 -0.353557 133.988 -0.000111246Z" fill="#D3DDF7"/>
<path d="M133.576 30.5142L133.517 25.0947C134.282 24.9179 135.047 24.6234 135.695 24.3289C136.342 24.0343 136.93 23.6809 137.401 23.2685C137.872 22.8562 138.284 22.3849 138.637 21.9137C138.99 21.3835 139.225 20.8533 139.402 20.2642C139.578 19.6752 139.637 19.0861 139.637 18.4381C139.637 17.4956 139.402 16.6709 138.99 15.8462C138.519 15.0215 137.872 14.3735 137.048 13.9022C136.224 13.372 135.224 13.1364 134.047 13.1364C132.811 13.1364 131.634 13.4899 130.575 14.1378C129.516 14.8447 128.692 15.964 128.163 17.6134L127.574 17.201C128.045 15.6694 128.869 14.4324 130.046 13.6077C131.223 12.783 132.517 12.3706 133.988 12.3706C135.224 12.3706 136.342 12.6651 137.284 13.1953C138.225 13.7255 138.99 14.4324 139.52 15.3749C140.049 16.2585 140.343 17.3189 140.343 18.4381C140.343 19.3217 140.226 20.0875 139.932 20.8533C139.637 21.6191 139.225 22.2671 138.696 22.9151C138.166 23.5631 137.519 24.0932 136.813 24.5645C136.048 25.0358 135.224 25.3892 134.282 25.6248L134.224 30.5731H133.576V30.5142ZM133.223 34.5788C133.223 34.2843 133.282 34.0486 133.459 33.8719C133.635 33.6952 133.812 33.5774 134.047 33.5774C134.341 33.5774 134.577 33.6363 134.694 33.813C134.812 33.9897 134.871 34.2254 134.871 34.5199C134.871 34.7555 134.812 34.9912 134.636 35.1679C134.518 35.3446 134.282 35.4624 133.988 35.4624C133.694 35.4624 133.517 35.4035 133.341 35.2268C133.282 35.109 133.223 34.8734 133.223 34.5788Z" fill="#1C1C1C"/>
<path d="M68.4358 221.905L69.4361 229.504C69.4361 229.504 88.2663 237.516 86.5598 237.634C84.7945 237.751 57.7261 235.984 57.7261 235.984L59.3149 222.2L68.4358 221.905Z" fill="#1C1C1C"/>
<path d="M63.1987 98.1402C63.1987 98.1402 61.6687 112.631 60.5507 113.338C59.4327 114.104 57.9027 114.458 57.9027 114.458L60.3153 97.9045L63.1987 98.1402Z" stroke="#424242" stroke-miterlimit="10"/>
<path d="M33.4235 88.1848C33.4235 88.1848 25.7737 105.445 28.0098 115.047L70.3188 108.567L69.4361 90.6589L33.4235 88.1848Z" fill="#1C1C1C"/>
<path d="M70.3188 108.567C70.3188 108.567 70.5542 149.979 70.8484 164.411C71.1426 178.844 73.6729 223.437 73.6729 223.437C73.6729 223.437 65.7878 227.796 57.5496 224.262C56.9023 223.967 49.7822 108.213 49.7822 108.213L70.3188 108.567Z" fill="#1C1C1C"/>
<path d="M28.716 109.922L10.8273 223.79C10.8273 223.79 18.6536 231.095 28.4806 224.438L46.6634 131.423L55.4901 125.473L56.7846 108.508L28.716 109.922Z" fill="#1C1C1C"/>
<path d="M24.0085 221.022L25.6561 227.56C25.6561 227.56 37.5426 241.875 35.7773 241.875C34.012 241.875 14.5345 233.039 14.5345 233.039L17.0648 219.431L24.0085 221.022Z" fill="#1C1C1C"/>
<path d="M35.2477 95.136C35.2477 95.136 24.0084 142.498 15.5937 226.206" stroke="#424242" stroke-miterlimit="10"/>
<path d="M42.9563 100.261C42.9563 100.261 39.0137 110.099 32.3055 110.275" stroke="#424242" stroke-miterlimit="10"/>
<path d="M59.6091 224.968L53.8424 126.946L59.4914 120.996" stroke="#424242" stroke-miterlimit="10"/>
<path d="M59.5503 38.5845C62.4926 37.9954 64.611 37.5242 64.611 37.5242L82.8527 47.5385C82.9115 47.5385 82.9115 47.5974 82.9703 47.5974C88.9724 50.8962 91.6204 56.4925 91.4439 64.3861L92.3266 75.7553L82.4407 67.6849L74.0849 83.8256L68.7889 102.912C40.426 113.221 29.4221 94.7236 29.4221 94.7236L38.8372 74.3415L42.6621 55.5499C44.3685 45.8891 49.8999 40.5285 59.5503 38.5845Z" fill="#9EC68A"/>
<path d="M212.898 70.7481C212.898 70.7481 210.015 82.7064 193.833 97.3744C193.833 97.3744 192.303 95.1948 195.716 86.771C199.188 78.2883 212.192 67.7438 212.898 70.7481Z" fill="#7E9E6E"/>
<path d="M212.898 70.748C212.898 70.748 198.599 79.6431 193.833 97.3743C193.833 97.3743 192.715 103.501 194.48 108.92" stroke="#1C1C1C" stroke-miterlimit="10" stroke-linecap="round"/>
<path d="M175.532 78.1704C175.532 78.1704 179.534 75.5196 173.414 67.8026C167.588 60.4981 161.351 53.9004 148.523 50.7783C148.523 50.7783 151.288 68.6274 159.527 73.34C167.647 78.1115 175.532 78.1704 175.532 78.1704Z" fill="#7E9E6E"/>
<path d="M143.168 89.0682C143.168 89.0682 156.526 92.8972 179.946 86.7119C179.946 86.7119 178.651 84.2378 168.471 82.7651C158.291 81.3513 140.638 86.9475 143.168 89.0682Z" fill="#7E9E6E"/>
<path d="M143.168 89.0684C143.168 89.0684 159.938 81.5282 179.946 86.7121C179.946 86.7121 182.005 87.3601 183.947 90.3644" stroke="#1C1C1C" stroke-miterlimit="10" stroke-linecap="round"/>
<path d="M153.642 102.087C153.642 102.087 167.529 112.572 190.949 106.387C190.949 106.387 187.007 98.0222 176.768 96.5495C166.588 95.0769 151.053 99.9662 153.642 102.087Z" fill="#7E9E6E"/>
<path d="M153.642 102.087C153.642 102.087 169.707 95.7839 190.949 106.387C190.949 106.387 193.421 107.683 195.363 110.688" stroke="#1C1C1C" stroke-miterlimit="10" stroke-linecap="round"/>
<path d="M205.66 58.7308C205.66 58.7308 209.956 58.4952 198.893 67.5081C188.478 75.9908 189.714 76.1675 189.714 76.1675C189.714 76.1675 194.304 62.7365 205.66 58.7308Z" fill="#1C1C1C"/>
<path d="M182.24 80.2912C182.24 80.2912 185.359 81.705 191.479 76.8156C197.599 71.8674 200.482 60.2626 205.66 58.731C205.66 58.731 192.656 62.0298 182.24 80.2912Z" fill="#7E9E6E"/>
<path d="M200.6 122.174C194.951 108.685 186.889 93.1919 175.532 78.1704C175.532 78.1704 172.767 74.0469 162.94 63.09C153.113 52.1921 148.523 50.7783 148.523 50.7783" stroke="#1C1C1C" stroke-miterlimit="10" stroke-linecap="round"/>
<path d="M204.072 59.261C204.072 59.261 191.656 63.738 182.24 80.291C179.946 84.2968 182.182 87.7134 184.006 90.3053" stroke="#1C1C1C" stroke-miterlimit="10" stroke-linecap="round"/>
<path d="M329.939 214.954C329.939 214.954 317.876 218.547 297.752 205.529C297.752 205.529 299.046 201.994 308.167 201.464C317.288 200.934 332.352 212.127 329.939 214.954Z" fill="#7E9E6E"/>
<path d="M329.469 214.07C329.469 214.07 316.229 203.644 297.987 205.175C297.987 205.175 291.867 206.236 287.336 209.77" stroke="#1C1C1C" stroke-miterlimit="10" stroke-linecap="round"/>
<path d="M303.695 188.092C303.695 188.092 307.579 190.979 312.698 182.555C317.582 174.602 321.642 166.473 320.23 153.337C320.23 153.337 304.401 162.055 302.753 171.362C301.106 180.67 303.695 188.092 303.695 188.092Z" fill="#7E9E6E"/>
<path d="M334.765 203.055C334.765 203.055 337.295 206.53 323.761 202.112C310.992 197.93 311.521 199.049 311.521 199.049C311.521 199.049 325.291 195.691 334.765 203.055Z" fill="#1C1C1C"/>
<path d="M303.989 195.043C303.989 195.043 304.46 198.46 311.874 200.934C319.289 203.408 330.646 199.52 334.706 203.114C334.765 203.055 324.997 193.924 303.989 195.043Z" fill="#7E9E6E"/>
<path d="M270.919 226.677C281.687 216.78 293.456 203.879 303.695 188.092C303.695 188.092 306.637 184.086 313.581 171.127C320.466 158.167 320.23 153.337 320.23 153.337" stroke="#1C1C1C" stroke-miterlimit="10" stroke-linecap="round"/>
<path d="M333.529 202.053C333.529 202.053 322.996 194.042 304.048 195.043C299.458 195.279 297.34 197.518 293.927 201.818" stroke="#1C1C1C" stroke-miterlimit="10" stroke-linecap="round"/>
<path d="M204.601 94.9002C208.308 94.9002 211.839 93.6042 214.722 91.2479L222.608 84.7092C225.432 82.3529 228.786 81.0569 232.258 81.0569H271.272C274.802 81.0569 277.686 83.9434 277.686 87.4778V94.9002V228.797C277.686 234.924 272.743 239.872 266.623 239.872H72.0841C67.3177 239.872 63.4929 236.043 63.4929 231.272V103.501C63.4929 98.7292 67.3177 94.9002 72.0841 94.9002H204.601Z" fill="#333969"/>
<path d="M63.4929 231.978C63.4929 231.978 76.7328 207.119 78.0274 204.292L114.217 130.539C115.099 128.595 117.1 127.299 119.218 127.299H253.618C258.503 127.299 265.564 124.707 269.33 121.585L274.744 117.049C277.568 114.693 280.922 113.397 284.394 113.397H321.525C325.467 113.397 328.174 117.403 326.644 121.055L281.746 229.74C279.216 235.807 273.272 239.813 266.682 239.813H65.9055C64.6109 239.813 63.3752 238.694 63.3752 237.398L63.4929 231.978Z" fill="#7584F1"/>
<path d="M118.159 134.31L65.0817 237.575" stroke="#1C1C1C" stroke-miterlimit="10" stroke-linejoin="round"/>
<path d="M139.99 152.1H185.712C186.948 152.1 188.125 151.452 188.772 150.45C190.302 148.035 188.596 144.913 185.712 144.913H139.99C138.755 144.913 137.578 145.561 136.93 146.562C135.4 148.977 137.107 152.1 139.99 152.1Z" stroke="#1C1C1C" stroke-miterlimit="10" stroke-linejoin="round"/>
<path d="M225.491 187.621L189.949 208.828" stroke="#1C1C1C" stroke-miterlimit="10" stroke-linecap="round" stroke-linejoin="round"/>
<path d="M196.422 186.561L218.783 208.946" stroke="#1C1C1C" stroke-miterlimit="10" stroke-linecap="round" stroke-linejoin="round"/>
<path d="M213.525 217.594C227.777 213.648 236.914 201.704 233.933 190.918C230.953 180.131 216.983 174.586 202.732 178.533C188.48 182.479 179.343 194.423 182.323 205.209C185.304 215.996 199.273 221.541 213.525 217.594Z" stroke="#1C1C1C" stroke-miterlimit="10" stroke-linecap="round" stroke-linejoin="round"/>
<path d="M72.5549 86.7119L79.1454 94.1343C79.1454 94.1343 72.9668 101.439 66.6705 97.1386L65.6701 95.6659L72.5549 86.7119Z" fill="#9EC68A"/>
<path d="M57.2554 42.4724C57.2554 42.4724 66.3174 44.8287 59.1972 70.9837" stroke="#1C1C1C" stroke-miterlimit="10" stroke-linecap="round"/>
<path d="M73.1433 87.4778C68.2593 81.9994 62.316 75.1072 58.7853 70.3357" stroke="#1C1C1C" stroke-miterlimit="10" stroke-linecap="round"/>
<path d="M66.6705 97.1388C61.963 92.3083 55.6666 85.4751 52.901 82.942C48.6053 78.9952 44.1332 72.6332 45.6043 64.445L45.4277 57.9062" stroke="#1C1C1C" stroke-miterlimit="10" stroke-linecap="round"/>
<path d="M94.798 93.6042C89.0313 90.4821 86.3833 86.5942 84.1472 83.7666C78.8512 76.9333 76.9682 76.1086 78.4981 68.1561L78.557 59.8501L90.0905 72.3385C94.5038 78.1704 104.625 88.656 108.391 92.7795C108.391 92.7206 104.037 98.6114 94.798 93.6042Z" fill="#9EC68A"/>
<path d="M71.3192 91.4835C71.8488 91.3656 72.3784 91.3067 72.9668 91.3656C74.9675 91.6013 80.2047 92.1314 80.8519 92.1314C81.6169 92.1314 82.2054 91.0711 83.7353 95.0179C85.3241 99.0236 85.0299 99.3771 85.0299 99.9073C85.0299 100.437 83.853 108.095 82.6173 106.917C81.3815 105.739 81.5581 105.091 81.5581 105.091C81.5581 105.091 80.9108 108.213 80.5577 108.095C80.2047 107.978 78.9101 107.978 79.1455 105.798C79.1455 105.798 78.4393 107.919 77.7332 107.389C77.0271 106.858 77.1448 104.561 77.1448 104.561C77.1448 104.561 76.3798 106.269 75.4971 105.15C74.6145 103.972 75.2617 101.321 75.2617 101.321L74.4968 99.3182L72.908 98.6113C72.908 98.6113 67.4943 100.025 66.5528 96.255C65.7878 93.3685 69.5539 92.0136 71.3192 91.4835Z" fill="#DB9C7F"/>
<path d="M82.2642 96.3728L83.2646 100.673L81.5581 105.15" stroke="#1C1C1C" stroke-miterlimit="10" stroke-linecap="round"/>
<path d="M79.6162 96.2549L80.9696 100.614L79.1454 105.798" stroke="#1C1C1C" stroke-miterlimit="10" stroke-linecap="round"/>
<path d="M77.3213 96.7261L78.0863 100.967L77.2036 104.09" stroke="#1C1C1C" stroke-miterlimit="10" stroke-linecap="round"/>
<path d="M72.908 15.3748C70.9661 17.2009 70.9661 19.3805 70.9661 19.3805C70.9661 19.3805 70.3188 18.5558 69.495 18.3201" stroke="#1C1C1C" stroke-miterlimit="10" stroke-linecap="round"/>
<path d="M100.388 90.3053C102.212 89.8341 104.154 90.1875 105.802 91.0122C107.979 92.1315 111.451 93.8987 111.922 94.0165C112.569 94.1932 113.04 93.8398 113.099 97.9044C113.157 99.4949 113.157 100.614 112.981 101.085C112.863 101.557 109.627 106.387 108.568 105.739L108.509 105.68C108.214 106.034 107.861 106.505 107.508 106.799C107.214 107.035 105.743 106.976 106.508 105.032C106.508 105.032 105.508 107.271 104.684 106.976C103.625 106.564 103.801 105.562 104.213 104.738C103.742 105.386 103.154 105.916 102.683 105.327C101.859 104.208 103.742 100.261 103.742 100.261L103.978 97.9044L102.565 96.6084C102.565 96.6084 97.446 96.7263 97.5636 93.074C97.5636 91.4246 98.9171 90.6588 100.388 90.3053Z" fill="#DB9C7F"/>
<path d="M111.686 96.4316L111.627 100.791L108.45 105.386" stroke="#1C1C1C" stroke-miterlimit="10" stroke-linecap="round"/>
<path d="M109.45 96.4316L109.156 100.909L106.508 105.032" stroke="#1C1C1C" stroke-miterlimit="10" stroke-linecap="round"/>
<path d="M107.155 96.5496L106.802 100.32L104.507 104.149" stroke="#1C1C1C" stroke-miterlimit="10" stroke-linecap="round"/>
<path d="M100.624 95.5482C100.624 95.5482 101.153 99.4361 99.8586 100.32C98.564 101.203 96.5633 93.1329 97.9756 93.0151C100.035 92.8384 100.624 95.5482 100.624 95.5482Z" fill="#DB9C7F"/>
<path d="M102.33 95.0178C102.33 95.0178 101.094 95.1945 100.741 96.6672" stroke="#1C1C1C" stroke-miterlimit="10" stroke-linecap="round"/>
<path d="M78.1451 76.1676L84.206 68.274C89.7374 60.9105 86.0302 53.1936 86.0302 53.1936" stroke="#1C1C1C" stroke-miterlimit="10" stroke-linecap="round"/>
<path d="M92.3265 75.7551C92.3265 75.7551 88.737 70.8069 87.972 72.9865" stroke="#1C1C1C" stroke-miterlimit="10" stroke-linecap="round"/>
<path d="M93.68 34.5198L92.6796 34.2842" stroke="#FFFFFC" stroke-miterlimit="10"/>
<path d="M72.2018 33.5774L64.6109 37.5831C64.6109 37.5831 64.4344 46.6549 72.9668 53.4882L76.7917 49.777L80.6754 53.6649C80.6754 53.6649 82.1465 52.4868 82.5584 47.244L81.8523 40.8819L72.2018 33.5774Z" fill="#FFFFFC"/>
<path d="M81.8523 40.823L72.2019 33.5774L64.611 37.5242" stroke="#1C1C1C" stroke-miterlimit="10" stroke-linecap="round" stroke-linejoin="round"/>
<path d="M69.9658 34.9322C69.9658 34.9322 72.3195 48.7166 75.7913 49.718C79.2631 50.7195 81.4404 43.8273 81.4404 43.8273L74.7321 24.9768L69.9658 34.9322Z" fill="#DB9C7F"/>
<path d="M82.7938 45.4176L82.8526 47.126C82.9115 47.126 82.7938 47.6561 81.0873 47.8328C73.6141 47.5972 73.0256 39.2323 72.4372 32.5168C72.4372 32.5758 83.4999 44.0628 82.7938 45.4176Z" fill="#1C1C1C"/>
<path d="M93.2092 26.6852C93.2092 26.6852 95.151 44.1808 84.9122 47.0083C74.6733 49.8359 72.2018 33.165 72.5549 27.3332C72.9079 21.5602 75.7913 18.6737 82.9703 18.4381C93.5622 18.0846 93.2092 26.6852 93.2092 26.6852Z" fill="#DB9C7F"/>
<path d="M77.9097 21.9725C77.9097 21.9725 77.7332 25.6247 75.2617 26.3905L73.4964 31.8101C73.4964 31.8101 72.0253 29.3948 70.4365 28.5701C70.4365 28.5701 68.6712 21.4423 70.9073 18.6147C73.1433 15.7872 76.2621 14.3734 83.7941 14.9624C89.502 15.4337 92.8561 19.4983 93.9742 21.5601C94.3272 22.2081 95.2099 24.0931 93.1504 25.9782C93.1504 25.9782 93.1504 24.5644 91.9735 22.9739C92.0323 22.915 89.2666 28.5112 77.9097 21.9725Z" fill="#1C1C1C"/>
<path d="M68.0828 32.6936C68.73 34.991 70.5542 36.5226 72.143 36.1102C73.7318 35.6978 74.5556 33.4594 73.9083 31.162C73.261 28.8646 71.4369 27.3329 69.8481 27.7453C68.2593 28.1577 67.4355 30.3961 68.0828 32.6936Z" fill="#DB9C7F"/>
<path d="M82.8527 33.4595C82.8527 34.0486 83.088 34.5788 83.4999 34.5788C83.853 34.5788 84.2061 34.1075 84.2061 33.5184C84.2061 32.9293 83.9707 32.3992 83.5588 32.3992C83.2057 32.3992 82.8527 32.8704 82.8527 33.4595Z" fill="#1C1C1C"/>
<path d="M90.7378 33.9308C90.6789 34.461 90.9143 34.9911 91.2674 34.9911C91.6204 35.0501 91.9147 34.5788 91.9735 34.0486C92.0323 33.5185 91.797 32.9883 91.4439 32.9883C91.0908 32.9883 90.7966 33.4006 90.7378 33.9308Z" fill="#1C1C1C"/>
<path d="M80.6166 28.7468C80.6166 28.7468 83.3234 29.3358 83.4999 26.7439" stroke="#1C1C1C" stroke-miterlimit="10" stroke-linecap="round"/>
<path d="M89.7963 28.5112C89.7963 28.5112 90.5024 30.9264 92.5031 29.5127" stroke="#1C1C1C" stroke-miterlimit="10" stroke-linecap="round"/>
<path d="M82.3819 43.0025C82.3819 43.0025 81.4992 39.3502 78.7335 41.4709L82.3819 43.0025Z" fill="#1C1C1C"/>
<path d="M69.6715 30.6908C69.6715 30.6908 71.4957 29.1592 72.4372 31.9867C72.4372 31.9867 71.378 33.106 72.0253 33.9896C72.0253 33.9896 70.9661 34.2252 70.4953 33.2827" stroke="#1C1C1C" stroke-miterlimit="10" stroke-linecap="round" stroke-linejoin="round"/>
<path d="M70.4954 31.7511C70.4954 31.7511 70.613 31.1031 71.3192 30.3962" stroke="#1C1C1C" stroke-miterlimit="10" stroke-linecap="round" stroke-linejoin="round"/>
<path d="M89.149 33.8718C89.149 35.5801 90.2082 36.935 91.4439 36.935C92.7385 36.935 93.7388 35.5801 93.7388 33.8718C93.7388 32.1635 92.6796 30.8086 91.4439 30.8086C90.2082 30.8086 89.149 32.1635 89.149 33.8718Z" stroke="#FFFFFC" stroke-miterlimit="10"/>
<path d="M80.4988 33.4594C80.4988 35.2266 81.7934 36.6993 83.4411 36.6993C85.0887 36.6993 86.3833 35.2266 86.3833 33.4594C86.3833 31.6922 85.0887 30.2195 83.4411 30.2195C81.8523 30.2195 80.4988 31.6333 80.4988 33.4594Z" stroke="#FFFFFC" stroke-miterlimit="10"/>
<path d="M89.2666 34.7556C89.2666 34.7556 88.5605 31.6924 86.2067 34.5199" stroke="#FFFFFC" stroke-miterlimit="10"/>
<path d="M80.5577 32.2225L73.7318 30.6909" stroke="#FFFFFC" stroke-miterlimit="10"/>
<path d="M89.5609 36.0515C89.9139 36.4639 89.9728 36.994 89.7962 37.5242C89.6197 38.0544 89.0901 38.4078 88.5017 38.4078C88.2663 38.4078 87.9721 38.3489 87.7367 38.2311C87.619 38.1722 87.4425 38.0544 87.3248 38.1133C86.7363 38.3489 86.0891 37.8777 86.2656 37.4653" stroke="#1C1C1C" stroke-miterlimit="10" stroke-linecap="round"/>
</g>
<defs>
<clipPath id="clip0_24_358">
<rect width="335" height="247" fill="white"/>
</clipPath>
</defs>
</svg>
